<svg width="23" height="26" viewBox="0 0 23 26" fill="none" xmlns="http://www.w3.org/2000/svg">
<path d="M19.9577 15.9077L22.4792 15.9077L22.4792 13.8141L15.1903 13.8141C15.0577 15.9864 13.2335 17.7102 11.0036 17.7102C8.77372 17.7102 6.94949 15.9864 6.81692 13.8141L-4.97922e-05 13.8141L-4.99752e-05 15.9077L2.08137 15.9077C2.19273 16.338 2.33856 16.7604 2.51356 17.1749C2.71242 17.6419 2.9484 18.088 3.22151 18.5104L1.39993 20.3128L4.26884 23.1516L6.09306 21.3465C6.51465 21.6115 6.9601 21.8424 7.42411 22.0365C7.94645 22.2543 8.4847 22.4248 9.03356 22.5429L9.03356 25.0537L13.0956 25.0537L13.0956 22.5219C13.6127 22.4038 14.1191 22.2412 14.6123 22.0365C15.1108 21.8293 15.5854 21.58 16.0335 21.2914L17.8259 23.065L20.6974 20.2236L18.8759 18.4212C19.1251 18.025 19.3399 17.6078 19.5255 17.1749C19.7005 16.7604 19.8463 16.338 19.9577 15.9077Z" fill="#FFB342"/>
<path d="M18.8742 4.70507V8.93269C18.8742 9.21959 18.6372 9.45235 18.345 9.45235H17.9702C17.678 9.45235 17.441 9.21959 17.441 8.93269V3.60621C16.3551 2.89709 15.1368 2.36661 13.8304 2.06348V9.39822C13.8304 9.68511 13.5934 9.91787 13.3012 9.91787H9.167C8.87485 9.91787 8.63782 9.68511 8.63782 9.39822V2.06348C7.34793 2.36661 6.12971 2.90251 5.04378 3.60621V8.93269C5.04378 9.21959 4.80675 9.45235 4.5146 9.45235H4.13976C3.8476 9.45235 3.61057 9.21959 3.61057 8.93269V4.70507C1.39462 6.71874 0 9.59309 0 12.7922H22.4793C22.4848 9.59309 21.0957 6.71874 18.8742 4.70507Z" fill="#FFB342"/>
<path d="M12.7723 8.52288C12.7723 8.76481 12.595 8.96042 12.3719 8.96042H10.1072C9.88992 8.96042 9.70691 8.76481 9.70691 8.52288V1.22367C9.70691 0.981739 9.8842 0.786133 10.1072 0.786133H12.3719C12.5893 0.786133 12.7723 0.981739 12.7723 1.22367V8.52288Z" fill="#FFB342"/>
</svg>
