<svg width="18" height="18" viewBox="0 0 18 18" fill="none" xmlns="http://www.w3.org/2000/svg">
<path d="M12.6268 1.84736C13.6109 1.85019 14.5539 2.22791 15.2498 2.89802C15.9456 3.56813 16.3379 4.47619 16.3408 5.42386V12.5761C16.3379 13.5238 15.9456 14.4318 15.2498 15.1019C14.5539 15.7721 13.6109 16.1498 12.6268 16.1526H5.19944C4.21532 16.1498 3.27234 15.7721 2.57645 15.1019C1.88057 14.4318 1.48832 13.5238 1.48539 12.5761V5.42386C1.48832 4.47619 1.88057 3.56813 2.57645 2.89802C3.27234 2.22791 4.21532 1.85019 5.19944 1.84736H12.6268ZM12.6268 0.416992H5.19944C2.33969 0.416992 0 2.67003 0 5.42386V12.5761C0 15.3299 2.33969 17.583 5.19944 17.583H12.6268C15.4865 17.583 17.8262 15.3299 17.8262 12.5761V5.42386C17.8262 2.67003 15.4865 0.416992 12.6268 0.416992Z" fill="#1C2752"/>
<path d="M13.7409 5.42407C13.5205 5.42407 13.3051 5.36115 13.1219 5.24326C12.9387 5.12537 12.7959 4.95781 12.7116 4.76177C12.6272 4.56572 12.6052 4.35 12.6482 4.14189C12.6912 3.93377 12.7973 3.7426 12.9531 3.59256C13.1089 3.44251 13.3074 3.34033 13.5235 3.29894C13.7397 3.25754 13.9637 3.27879 14.1673 3.35999C14.3708 3.44119 14.5448 3.5787 14.6673 3.75514C14.7897 3.93157 14.855 4.139 14.855 4.35119C14.8553 4.49217 14.8267 4.63182 14.7709 4.76212C14.715 4.89243 14.6329 5.01082 14.5294 5.11051C14.4259 5.21019 14.3029 5.28921 14.1676 5.34302C14.0323 5.39683 13.8873 5.42437 13.7409 5.42407ZM8.9131 6.13906C9.50074 6.13906 10.0752 6.30686 10.5638 6.62125C11.0524 6.93563 11.4332 7.38248 11.6581 7.90528C11.883 8.42809 11.9418 9.00336 11.8272 9.55837C11.7125 10.1134 11.4296 10.6232 11.014 11.0233C10.5985 11.4234 10.0691 11.6959 9.49274 11.8063C8.91639 11.9167 8.31899 11.8601 7.77608 11.6435C7.23317 11.427 6.76914 11.0603 6.44266 10.5897C6.11619 10.1192 5.94193 9.56606 5.94193 9.00019C5.94277 8.24162 6.25608 7.51435 6.81309 6.97796C7.37011 6.44157 8.12535 6.13987 8.9131 6.13906ZM8.9131 4.70869C8.03167 4.70869 7.17005 4.96038 6.43717 5.43194C5.70429 5.90349 5.13309 6.57373 4.79578 7.3579C4.45847 8.14207 4.37022 9.00495 4.54218 9.83742C4.71413 10.6699 5.13858 11.4346 5.76184 12.0347C6.3851 12.6349 7.17918 13.0436 8.04367 13.2092C8.90815 13.3748 9.80422 13.2898 10.6185 12.965C11.4329 12.6402 12.1289 12.0901 12.6186 11.3844C13.1083 10.6787 13.3696 9.84897 13.3696 9.00019C13.3696 7.86201 12.9001 6.77045 12.0644 5.96564C11.2286 5.16083 10.095 4.70869 8.9131 4.70869Z" fill="#1C2752"/>
</svg>
