<svg width="241" height="48" viewBox="0 0 241 48" fill="none" xmlns="http://www.w3.org/2000/svg">
<path d="M39.0644 29.848L44 29.848L44 25.75L29.733 25.75C29.4735 30.0021 25.9028 33.376 21.5381 33.376C17.1734 33.376 13.6027 30.0021 13.3432 25.75L-1.84991e-05 25.75L-1.88574e-05 29.848L4.07406 29.848C4.29203 30.6902 4.57748 31.517 4.92001 32.3284C5.30925 33.2425 5.77116 34.1155 6.30572 34.9423L2.74025 38.4703L8.35573 44.0268L11.9264 40.4937C12.7516 41.0124 13.6235 41.4643 14.5317 41.8443C15.5541 42.2705 16.6077 42.6043 17.682 42.8354L17.682 47.75L25.6329 47.75L25.6329 42.7943C26.645 42.5633 27.6362 42.2449 28.6016 41.8443C29.5773 41.4386 30.5062 40.9507 31.3833 40.3859L34.8917 43.8574L40.5124 38.2957L36.9469 34.7677C37.4348 33.9923 37.8552 33.1758 38.2184 32.3284C38.561 31.517 38.8464 30.6902 39.0644 29.848Z" fill="#1C2752"/>
<path d="M36.9436 7.92054V16.1955C36.9436 16.7571 36.4796 17.2127 35.9078 17.2127H35.1741C34.6022 17.2127 34.1383 16.7571 34.1383 16.1955V5.76968C32.0127 4.38169 29.6282 3.34334 27.0711 2.75V17.1067C27.0711 17.6683 26.6071 18.1239 26.0353 18.1239H17.9431C17.3712 18.1239 16.9073 17.6683 16.9073 17.1067V2.75C14.3825 3.34334 11.998 4.39228 9.87248 5.76968V16.1955C9.87248 16.7571 9.40853 17.2127 8.83668 17.2127H8.10299C7.53114 17.2127 7.06718 16.7571 7.06718 16.1955V7.92054C2.72977 11.862 0 17.4881 0 23.75H44C44.0108 17.4881 41.2918 11.862 36.9436 7.92054Z" fill="#FFB342"/>
<path d="M25 15.3936C25 15.8671 24.653 16.25 24.2164 16.25H19.7836C19.3582 16.25 19 15.8671 19 15.3936V1.10642C19 0.632871 19.347 0.25 19.7836 0.25H24.2164C24.6418 0.25 25 0.632871 25 1.10642V15.3936Z" fill="#FFB342"/>
<path d="M56.52 35.5V10.825H67.895C70.6017 10.825 72.69 11.3967 74.16 12.54C75.63 13.6833 76.365 15.2467 76.365 17.23C76.365 18.7 75.9217 19.9483 75.035 20.975C74.1717 22.0017 72.9817 22.69 71.465 23.04V22.48C73.2383 22.7833 74.6033 23.46 75.56 24.51C76.54 25.5367 77.03 26.8783 77.03 28.535C77.03 30.7283 76.2483 32.4433 74.685 33.68C73.145 34.8933 71.01 35.5 68.28 35.5H56.52ZM61.735 31.44H67.615C68.9683 31.44 70.0067 31.1833 70.73 30.67C71.4533 30.1567 71.815 29.34 71.815 28.22C71.815 27.0767 71.4533 26.26 70.73 25.77C70.0067 25.2567 68.9683 25 67.615 25H61.735V31.44ZM61.735 20.975H66.915C68.3383 20.975 69.3883 20.7183 70.065 20.205C70.7417 19.6917 71.08 18.9217 71.08 17.895C71.08 16.8917 70.7417 16.1333 70.065 15.62C69.3883 15.1067 68.3383 14.85 66.915 14.85H61.735V20.975ZM80.5401 35.5V9.74H85.8251V35.5H80.5401ZM96.5846 35.885C94.3679 35.885 92.7229 35.2783 91.6496 34.065C90.5763 32.8283 90.0396 30.9617 90.0396 28.465V17.755H95.3246V28.465C95.3246 29.585 95.5463 30.4133 95.9896 30.95C96.4563 31.4867 97.1679 31.755 98.1246 31.755C99.1746 31.755 100.038 31.3933 100.715 30.67C101.415 29.9233 101.765 28.9317 101.765 27.695V17.755H107.05V35.5H101.905V32.105H102.395C101.858 33.295 101.088 34.2283 100.085 34.905C99.1046 35.5583 97.9379 35.885 96.5846 35.885ZM120.329 35.885C117.249 35.885 114.846 35.0567 113.119 33.4C111.393 31.7433 110.529 29.4917 110.529 26.645C110.529 24.8017 110.891 23.1917 111.614 21.815C112.361 20.4383 113.388 19.365 114.694 18.595C116.024 17.8017 117.576 17.405 119.349 17.405C121.099 17.405 122.558 17.7783 123.724 18.525C124.914 19.2717 125.801 20.3217 126.384 21.675C126.991 23.005 127.294 24.5567 127.294 26.33V27.555H114.869V24.93H123.444L122.849 25.42C122.849 23.95 122.546 22.8417 121.939 22.095C121.356 21.325 120.504 20.94 119.384 20.94C118.148 20.94 117.191 21.395 116.514 22.305C115.861 23.215 115.534 24.5217 115.534 26.225V26.785C115.534 28.5117 115.954 29.795 116.794 30.635C117.658 31.475 118.894 31.895 120.504 31.895C121.461 31.895 122.359 31.7783 123.199 31.545C124.063 31.2883 124.879 30.8917 125.649 30.355L127.119 33.855C126.233 34.5083 125.206 35.01 124.039 35.36C122.896 35.71 121.659 35.885 120.329 35.885ZM142.933 35.885C140.296 35.885 138.033 35.36 136.143 34.31C134.253 33.26 132.794 31.79 131.768 29.9C130.764 27.9867 130.263 25.735 130.263 23.145C130.263 20.555 130.764 18.315 131.768 16.425C132.794 14.535 134.253 13.065 136.143 12.015C138.033 10.965 140.296 10.44 142.933 10.44C144.636 10.44 146.188 10.685 147.588 11.175C148.988 11.6417 150.178 12.33 151.158 13.24L149.443 17.545C148.369 16.705 147.343 16.11 146.363 15.76C145.406 15.41 144.321 15.235 143.108 15.235C140.798 15.235 139.024 15.9233 137.788 17.3C136.574 18.6533 135.968 20.6017 135.968 23.145C135.968 25.6883 136.574 27.6483 137.788 29.025C139.024 30.4017 140.798 31.09 143.108 31.09C144.321 31.09 145.406 30.915 146.363 30.565C147.343 30.215 148.369 29.62 149.443 28.78L151.158 33.085C150.178 33.9717 148.988 34.66 147.588 35.15C146.188 35.64 144.636 35.885 142.933 35.885ZM161.777 35.885C159.887 35.885 158.242 35.5117 156.842 34.765C155.465 33.995 154.392 32.9217 153.622 31.545C152.875 30.1683 152.502 28.5233 152.502 26.61C152.502 24.72 152.875 23.0867 153.622 21.71C154.392 20.3333 155.465 19.2717 156.842 18.525C158.242 17.7783 159.887 17.405 161.777 17.405C163.667 17.405 165.312 17.7783 166.712 18.525C168.112 19.2717 169.185 20.3333 169.932 21.71C170.702 23.0867 171.087 24.72 171.087 26.61C171.087 28.5233 170.702 30.1683 169.932 31.545C169.185 32.9217 168.112 33.995 166.712 34.765C165.312 35.5117 163.667 35.885 161.777 35.885ZM161.777 31.895C162.99 31.895 163.947 31.4633 164.647 30.6C165.37 29.7367 165.732 28.4067 165.732 26.61C165.732 24.8133 165.37 23.495 164.647 22.655C163.947 21.815 162.99 21.395 161.777 21.395C160.564 21.395 159.595 21.815 158.872 22.655C158.172 23.495 157.822 24.8133 157.822 26.61C157.822 28.4067 158.172 29.7367 158.872 30.6C159.595 31.4633 160.564 31.895 161.777 31.895ZM200.604 35.885C199.064 35.885 197.711 35.5117 196.544 34.765C195.377 34.0183 194.467 32.9567 193.814 31.58C193.161 30.2033 192.834 28.5467 192.834 26.61C192.834 24.6967 193.161 23.0517 193.814 21.675C194.467 20.2983 195.377 19.2483 196.544 18.525C197.711 17.7783 199.064 17.405 200.604 17.405C202.027 17.405 203.299 17.755 204.419 18.455C205.562 19.1317 206.309 20.0533 206.659 21.22H206.274L206.694 17.755H211.769C211.699 18.525 211.629 19.3067 211.559 20.1C211.512 20.87 211.489 21.6283 211.489 22.375V35.5H206.239L206.204 32.175H206.624C206.251 33.295 205.504 34.1933 204.384 34.87C203.264 35.5467 202.004 35.885 200.604 35.885ZM202.214 31.895C203.427 31.895 204.407 31.4633 205.154 30.6C205.901 29.7367 206.274 28.4067 206.274 26.61C206.274 24.8133 205.901 23.495 205.154 22.655C204.407 21.815 203.427 21.395 202.214 21.395C201.001 21.395 200.021 21.815 199.274 22.655C198.527 23.495 198.154 24.8133 198.154 26.61C198.154 28.4067 198.516 29.7367 199.239 30.6C199.986 31.4633 200.977 31.895 202.214 31.895ZM215.788 35.5V22.445C215.788 21.675 215.765 20.8933 215.718 20.1C215.695 19.3067 215.637 18.525 215.543 17.755H220.618L221.213 22.935H220.408C220.642 21.675 221.015 20.6367 221.528 19.82C222.065 19.0033 222.718 18.3967 223.488 18C224.282 17.6033 225.18 17.405 226.183 17.405C226.627 17.405 226.977 17.4283 227.233 17.475C227.49 17.4983 227.747 17.5567 228.003 17.65L227.968 22.305C227.478 22.095 227.058 21.9667 226.708 21.92C226.382 21.85 225.962 21.815 225.448 21.815C224.468 21.815 223.652 22.0017 222.998 22.375C222.368 22.7483 221.89 23.2967 221.563 24.02C221.26 24.7433 221.108 25.6183 221.108 26.645V35.5H215.788Z" fill="#1C2752"/>
<path d="M174.5 35.5V9.74H179.785V35.5H174.5ZM184.105 35.5V9.74H189.39V35.5H184.105Z" fill="#FFB342"/>
</svg>
