<svg width="19" height="20" viewBox="0 0 19 20" fill="none" xmlns="http://www.w3.org/2000/svg">
<path d="M9.80856 0.945312C4.80721 0.945312 0.751953 4.99876 0.751953 9.99788C0.751953 13.7038 2.98376 16.8883 6.17379 18.2907C6.14953 17.6602 6.16974 16.9005 6.33147 16.2134C6.50532 15.4779 7.49589 11.279 7.49589 11.279C7.49589 11.279 7.20478 10.7011 7.20478 9.84835C7.20478 8.50663 7.98107 7.50438 8.95142 7.50438C9.77621 7.50438 10.1724 8.1227 10.1724 8.86226C10.1724 9.69074 9.64279 10.9274 9.3719 12.0751C9.14549 13.037 9.85303 13.8169 10.8032 13.8169C12.5175 13.8169 13.6738 11.6144 13.6738 9.00371C13.6738 7.01942 12.3355 5.53626 9.90559 5.53626C7.16031 5.53626 5.44602 7.58521 5.44602 9.87259C5.44602 10.6607 5.68053 11.2184 6.04441 11.6467C6.21018 11.8448 6.23443 11.9256 6.17379 12.1519C6.12931 12.3176 6.03228 12.7177 5.9878 12.8793C5.92716 13.1097 5.74117 13.1905 5.53497 13.1057C4.26947 12.5884 3.67918 11.2062 3.67918 9.64628C3.67918 7.076 5.85034 3.99247 10.1522 3.99247C13.6091 3.99247 15.8854 6.49405 15.8854 9.17749C15.8854 12.7298 13.9083 15.3809 10.9972 15.3809C10.0188 15.3809 9.10101 14.8515 8.78565 14.2534C8.78565 14.2534 8.26004 16.3387 8.14683 16.7428C7.95681 17.442 7.5808 18.1371 7.23713 18.6827C8.07078 18.9285 8.93535 19.0537 9.80452 19.0545C14.8059 19.0545 18.8611 15.001 18.8611 10.0019C18.8611 5.0028 14.8099 0.945312 9.80856 0.945312Z" fill="#1C2752"/>
</svg>
