<svg width="20" height="16" viewBox="0 0 20 16" fill="none" xmlns="http://www.w3.org/2000/svg">
<path d="M19.752 2.17034C19.0355 2.48165 18.2775 2.68674 17.5018 2.77914C18.317 2.3018 18.93 1.54347 19.2259 0.646363C18.4552 1.09703 17.6135 1.41324 16.7366 1.58144C16.3674 1.19449 15.9234 0.88666 15.4315 0.676661C14.9396 0.466662 14.4101 0.358882 13.8753 0.35987C11.7099 0.35987 9.95751 2.08678 9.95751 4.21558C9.95597 4.51169 9.9899 4.80692 10.0586 5.09496C8.50582 5.02216 6.98536 4.62606 5.59446 3.93198C4.20356 3.2379 2.97285 2.26113 1.98108 1.06416C1.63314 1.65073 1.44913 2.31997 1.44828 3.00197C1.44828 4.33893 2.14581 5.52072 3.19907 6.21307C2.57504 6.19826 1.9638 6.0331 1.41724 5.73161V5.77936C1.41724 7.64952 2.77012 9.20533 4.5607 9.55947C4.22399 9.64923 3.87701 9.69471 3.52853 9.69476C3.28127 9.69519 3.03456 9.6712 2.79201 9.62313C3.28979 11.1551 4.73857 12.2692 6.45474 12.301C5.06023 13.3758 3.34813 13.9566 1.58755 13.9524C1.27504 13.9519 0.962819 13.9333 0.652466 13.8966C2.44351 15.0403 4.52547 15.6453 6.65051 15.6395C13.8669 15.6395 17.8094 9.7624 17.8094 4.66522C17.8094 4.4981 17.805 4.33098 17.7971 4.16783C18.5623 3.62352 19.2243 2.9471 19.752 2.17034Z" fill="#1C2752"/>
</svg>
